<svg width="30" height="18" viewBox="0 0 30 18" fill="none" xmlns="http://www.w3.org/2000/svg">
<path id="Vector" d="M28.2411 0.154522C25.3869 0.272257 19.7139 0.7008 16.2117 2.259C15.9701 2.36652 15.8331 2.55769 15.8331 2.75758V16.5327C15.8331 16.9699 16.4909 17.2463 17.0456 17.0434C20.6488 15.7252 25.8598 15.3655 28.4364 15.2671C29.3161 15.2334 30 14.7208 30 14.1064V1.31674C30.0005 0.646286 29.2005 0.11515 28.2411 0.154522ZM13.7883 2.259C10.2866 0.7008 4.61362 0.272636 1.75941 0.154522C0.800014 0.11515 0 0.646286 0 1.31674V14.1068C0 14.7216 0.683866 15.2342 1.56357 15.2675C4.14122 15.3659 9.35485 15.7259 12.958 17.0449C13.5112 17.2474 14.1669 16.9714 14.1669 16.5353V2.75077C14.1669 2.5505 14.0305 2.36689 13.7883 2.259Z" fill="white"/>
</svg>
